Coordinates
version=1
nRows=16
nColumns=36
inDegrees=yes

Units are S.I. units (second, meters, Newtons, ...)
If the header above contains a line with 'inDegrees', this indicates whether rotational values are in degrees (yes) or radians (no).

endheader
time	pelvis_tilt	pelvis_list	pelvis_rotation	pelvis_tx	pelvis_ty	pelvis_tz	hip_flexion_r	hip_adduction_r	hip_rotation_r	knee_angle_r	knee_angle_r_beta	ankle_angle_r	subtalar_angle_r	mtp_angle_r	hip_flexion_l	hip_adduction_l	hip_rotation_l	knee_angle_l	knee_angle_l_beta	ankle_angle_l	subtalar_angle_l	mtp_angle_l	lumbar_extension	lumbar_bending	lumbar_rotation	arm_flex_r	arm_add_r	arm_rot_r	elbow_flex_r	pro_sup_r	arm_flex_l	arm_add_l	arm_rot_l	elbow_flex_l	pro_sup_l
      5.53333330	    -19.11278288	      8.77029277	    -18.86576064	      0.91191843	      0.64330622	      0.06339901	     79.31305391	    -10.66540488	     -1.47053195	     93.51852417	      1.63220616	     33.45216103	     -9.43301674	     -7.49999987	     74.87497401	     -8.06150887	     -2.00766470	     93.88346154	      1.63857552	     36.68866109	     -8.48656162	     -7.49999987	    -20.41616236	     -1.36627260	      9.77863003	     67.49668268	    -12.63330769	     68.29465675	    135.02845640	     86.23811491	     59.36135529	      2.29454228	     64.92236679	    130.25147991	     98.96132116
      5.55000000	    -19.14188718	      8.76078775	    -18.92375053	      0.90646737	      0.64287910	      0.05902321	     79.18995159	    -10.64544688	     -1.70003083	     92.98563235	      1.62290544	     33.36351986	     -9.39173465	     -7.49999987	     74.86050071	     -8.26048829	     -2.11686007	     93.54257564	      1.63262594	     36.32104368	     -8.38996162	     -7.49999987	    -20.17863970	     -1.42814901	      9.61986552	     67.83052109	    -12.86972604	     67.89199759	    134.86991514	     86.26712837	     59.89696400	      2.27357266	     64.74511967	    129.93902026	     99.04282004
      5.56666670	    -19.03319664	      8.69500970	    -18.90575674	      0.91221127	      0.64631079	      0.06398484	     78.72772197	    -10.70634633	     -1.96393949	     92.52610575	      1.61488519	     33.25882866	     -9.41545576	     -7.49999987	     74.41009161	     -8.33303990	     -2.14615008	     93.03384004	      1.62374682	     36.12248862	     -8.40503049	     -7.49999987	    -19.84313441	     -1.49988996	      9.82592394	     67.56961344	    -12.47326955	     67.64465521	    134.90688417	     86.28212037	     59.84099671	      2.18792949	     64.68960364	    129.66972708	     99.09369062
      5.58333330	    -18.95175699	      8.52324451	    -18.89217392	      0.90133103	      0.65184975	      0.06347291	     78.33905172	    -10.56672265	     -2.31480128	     91.86987826	      1.60343186	     32.98434056	     -9.63750575	     -7.49999987	     74.17817482	     -8.61703720	     -2.15270872	     92.47200797	      1.61394101	     35.43525016	     -8.49144185	     -7.49999987	    -19.90490187	     -1.50940035	     10.09207992	     68.05444819	    -12.60690665	     66.72711883	    133.91870931	     86.29138311	     60.78509730	      2.10013897	     64.05720943	    128.62440380	     99.17256690
      5.60000000	    -18.85684204	      8.41260218	    -18.88507301	      0.90218326	      0.65500888	      0.06306022	     77.81186565	    -10.51172059	     -2.67056952	     90.99158467	      1.58810274	     32.53802670	     -9.88622330	     -7.49999987	     73.79291096	     -8.78374807	     -2.22096093	     91.74735158	      1.60129337	     34.85276367	     -8.87775330	     -7.49999987	    -19.74365458	     -1.45443624	     10.35258679	     67.76506473	    -12.50283727	     67.11004362	    134.61453999	     86.08808018	     61.24021333	      2.93269636	     63.71633033	    129.20260804	     98.92716565
      5.61666670	    -18.66877742	      8.39077409	    -18.93476721	      0.90814414	      0.65928649	      0.05897682	     77.18443190	    -10.60697443	     -2.88020051	     90.17583504	      1.57386523	     32.08910281	     -9.93119249	     -7.49999987	     73.08121051	     -8.69676229	     -2.35754679	     90.87938720	      1.58614453	     34.48610104	     -9.00921668	     -7.49999987	    -19.45261730	     -1.31797402	     10.20305398	     67.40808214	    -12.46517744	     67.14926252	    134.86466356	     86.23404603	     60.91860075	      3.44713693	     63.56531824	    128.82345036	     99.05089881
      5.63333330	    -18.22497192	      8.25456289	    -19.04628109	      0.91384675	      0.66368848	      0.06300395	     76.02785834	    -10.57161099	     -2.97380015	     89.38279045	      1.56002399	     31.56532544	    -10.14733923	     -7.49999987	     71.87706361	     -8.59556003	     -2.46766028	     89.97235163	      1.57031377	     34.22885669	     -9.29519185	     -7.49999987	    -19.05634633	     -1.35371349	     10.37429339	     66.26034792	    -12.26387373	     66.05070373	    135.67170853	     86.81818371	     59.91362917	      3.85816276	     64.09261992	    129.13573204	     99.69474035
      5.65000000	    -17.70053098	      8.15101148	    -19.08630580	      0.91947834	      0.67579059	      0.06688820	     74.21287207	    -10.55874331	     -3.05683661	     88.06538776	      1.53703097	     31.24098512	    -10.14389952	     -7.49999987	     69.94916882	     -8.35098606	     -2.62020415	     88.43139373	      1.54341898	     34.07967112	     -9.30964222	     -7.49999987	    -18.85841157	     -1.38470128	     10.11218367	     64.53116675	    -11.63243510	     66.64472720	    135.24181348	     86.63642274	     58.20649964	      3.38384259	     65.28539656	    129.51279148	     98.99444930
      5.66666670	    -17.49165731	      8.07198284	    -19.16143783	      0.91907433	      0.68008272	      0.06759629	     72.83052860	    -10.41373268	     -3.22422083	     86.73816076	      1.51386649	     30.95324177	    -10.05896862	     -7.49999987	     68.53609133	     -8.38112462	     -2.79386687	     87.06787237	      1.51962105	     33.63771919	     -9.27360896	     -7.49999987	    -18.28316035	     -1.44615847	     10.02030547	     63.46630530	    -11.33677530	     67.00869460	    135.01321375	     86.88119829	     57.55561589	      3.27232437	     65.26084067	    129.29628934	     99.17809212
      5.68333330	    -17.11812667	      7.88316703	    -19.24989755	      0.91883098	      0.68869313	      0.06761082	     71.31010530	    -10.27773109	     -3.45820089	     85.31384039	      1.48900741	     30.71015515	    -10.13660330	     -7.49999987	     67.07010480	     -8.45532123	     -2.96894557	     85.74765864	      1.49657897	     32.95889785	     -9.44941861	     -7.49999987	    -18.18168250	     -1.40742139	      9.78745881	     62.71683104	    -10.84029748	     66.87419230	    134.20705331	     87.19816033	     56.88113529	      2.86439227	     64.76549858	    127.91294468	     99.37216030
      5.70000000	    -16.82497460	      7.64178314	    -19.29857293	      0.92386849	      0.69643667	      0.07310689	     69.66113722	    -10.08558982	     -3.91982360	     83.80497457	      1.46267274	     30.60351076	    -10.13457393	     -7.49999987	     65.52483128	     -8.63343946	     -3.11326656	     84.22418812	      1.46998939	     32.37333732	     -9.62629095	     -7.49999987	    -17.83092490	     -1.31463832	      9.76387378	     61.71974315	    -10.26441809	     66.40837445	    133.30165207	     87.66561773	     56.53987892	      2.18175946	     64.64784259	    127.80605823	     99.63547389
      5.71666670	    -16.86120742	      7.55346120	    -19.35525995	      0.92410591	      0.70648899	      0.07381343	     68.27401656	     -9.92476717	     -4.42625253	     82.01289692	      1.43139508	     30.28824472	     -9.93423145	     -7.49999987	     64.16621384	     -8.79869369	     -3.32777768	     82.36508565	      1.43754193	     31.72129248	     -9.44359430	     -7.49999987	    -17.20464611	     -1.24522405	      9.83338662	     61.31077820	    -10.13146390	     66.08927754	    133.01380248	     87.77216889	     56.20206008	      1.96206630	     64.70337643	    127.90798328	     99.60543258
      5.73333330	    -16.81402024	      7.25230528	    -19.37483053	      0.91904549	      0.71230210	      0.07751090	     66.89166080	     -9.52428457	     -5.04567674	     80.36650579	      1.40266013	     30.03350060	     -9.91156439	     -7.49999987	     63.02104400	     -9.23002116	     -3.41376958	     80.74100564	      1.40919639	     30.80871336	     -9.52853680	     -7.49999987	    -16.88121470	     -1.10278951	      9.96377811	     61.46756781	     -9.75002292	     65.03855815	    133.12291511	     87.92509479	     56.65397174	      1.70328204	     64.51127475	    128.76934249	     99.68126141
      5.75000000	    -16.71833884	      7.14209976	    -19.33817302	      0.92500822	      0.71649065	      0.07328754	     65.71900740	     -9.48670722	     -5.42319428	     79.02956218	      1.37932607	     29.67526332	     -9.86452546	     -7.49999987	     61.94912681	     -9.26944721	     -3.59866824	     79.36768161	      1.38522736	     30.15577972	     -9.61362496	     -7.49999987	    -16.40413341	     -0.89675855	      9.78537301	     61.45620435	    -10.07771044	     64.15272246	    133.35124466	     88.07429191	     56.29785733	      2.09320714	     64.43334693	    129.65949025	     99.73986198
      5.76666670	    -16.43215993	      6.88509285	    -19.25049234	      0.92059557	      0.72936345	      0.07623190	     64.16002036	     -9.33462932	     -5.92940003	     77.27192568	      1.34864952	     29.31126220	     -9.79592779	     -7.49999987	     60.62047405	     -9.30541072	     -3.67999387	     77.63945043	      1.35506404	     29.27418297	     -9.86005286	     -7.49999987	    -16.45885241	     -0.73614213	      9.53074545	     61.01593536	     -9.69916326	     63.79338355	    132.60831824	     86.47416610	     55.98869277	      1.98654398	     63.75638519	    128.72657425	     97.66400944
      5.78333330	    -16.26951903	      6.79087185	    -19.32298522	      0.93196048	      0.73457194	      0.07654918	     62.61539097	     -9.26841338	     -6.29139389	     75.60330595	      1.31952661	     28.84631020	     -9.59214647	     -7.49999987	     59.03773294	     -9.27180699	     -3.87932246	     75.83135822	      1.32350688	     28.54134368	     -9.83282838	     -7.49999987	    -15.56319840	     -0.59547829	      9.36006734	     59.77055626	     -9.10556437	     64.35867882	    133.04588662	     86.71926038	     55.48601975	      2.04937241	     63.41382745	    128.42404565	     97.72442727
